HIERARCHY
ROOT SpineBase
{
  OFFSET 0.000000 0.000000 0.000000
  CHANNELS 6 Xposition Yposition Zposition Zrotation Xrotation Yrotation
  JOINT SpineMid
  {
    OFFSET -0.000000 28.854359 0.000000
    CHANNELS 3 Zrotation Xrotation Yrotation
    JOINT SpineShoulder
    {
      OFFSET -0.010700 21.458889 -0.712475
      CHANNELS 3 Zrotation Xrotation Yrotation
      JOINT Neck
      {
        OFFSET -0.021844 7.106518 -0.539574
        CHANNELS 3 Zrotation Xrotation Yrotation
        JOINT Head
        {
          OFFSET -1.519344 12.306681 0.877191
          CHANNELS 3 Zrotation Xrotation Yrotation
          End Site
          {
            OFFSET 0 0 0
          }
        }
      }
      JOINT ShoulderLeft
      {
        OFFSET -15.900370 -2.540543 3.988154
        CHANNELS 3 Zrotation Xrotation Yrotation
        JOINT ElbowLeft
        {
          OFFSET -4.469535 -27.373440 3.712603
          CHANNELS 3 Zrotation Xrotation Yrotation
          JOINT WristLeft
          {
            OFFSET -3.394226 -20.703586 -3.573427
            CHANNELS 3 Zrotation Xrotation Yrotation
            JOINT HandLeft
            {
              OFFSET 0.191180 -6.948639 -2.169772
              CHANNELS 3 Zrotation Xrotation Yrotation
              JOINT HandTipLeft
              {
                OFFSET 0.848229 -6.338377 -1.108636
                CHANNELS 3 Zrotation Xrotation Yrotation
                End Site
                {
                  OFFSET 0 0 0
                }
              }
              JOINT ThumbLeft
              {
                OFFSET -1.869130 -2.617979 -2.286769
                CHANNELS 3 Zrotation Xrotation Yrotation
                End Site
                {
                  OFFSET 0 0 0
                }
              }
            }
          }
        }
      }
      JOINT ShoulderRight
      {
        OFFSET 15.617224 -1.952391 -5.181168
        CHANNELS 3 Zrotation Xrotation Yrotation
        JOINT ElbowRight
        {
          OFFSET 6.528920 -24.917113 -2.710161
          CHANNELS 3 Zrotation Xrotation Yrotation
          JOINT WristRight
          {
            OFFSET 0.241529 -22.759823 -4.729008
            CHANNELS 3 Zrotation Xrotation Yrotation
            JOINT HandRight
            {
              OFFSET -1.193068 -7.271511 -1.460485
              CHANNELS 3 Zrotation Xrotation Yrotation
              JOINT HandTipRight
              {
                OFFSET -0.833829 -6.322031 -1.588247
                CHANNELS 3 Zrotation Xrotation Yrotation
                End Site
                {
                  OFFSET 0 0 0
                }
              }
              JOINT ThumbRight
              {
                OFFSET -2.704287 0.242396 -2.381225
                CHANNELS 3 Zrotation Xrotation Yrotation
                End Site
                {
                  OFFSET 0 0 0
                }
              }
            }
          }
        }
      }
    }
  }
  JOINT HipLeft
  {
    OFFSET -6.008668 0.553309 -1.885779
    CHANNELS 3 Zrotation Xrotation Yrotation
    JOINT KneeLeft
    {
      OFFSET -7.706964 -31.585816 -0.010728
      CHANNELS 3 Zrotation Xrotation Yrotation
      JOINT AnkleLeft
      {
        OFFSET -0.315626 -34.211034 5.950319
        CHANNELS 3 Zrotation Xrotation Yrotation
        JOINT FootLeft
        {
          OFFSET -2.474824 -3.944772 -12.216064
          CHANNELS 3 Zrotation Xrotation Yrotation
          End Site
          {
            OFFSET 0 0 0
          }
        }
      }
    }
  }
  JOINT HipRight
  {
    OFFSET 5.471981 0.759393 -4.839861
    CHANNELS 3 Zrotation Xrotation Yrotation
    JOINT KneeRight
    {
      OFFSET 6.056880 -26.971705 0.213332
      CHANNELS 3 Zrotation Xrotation Yrotation
      JOINT AnkleRight
      {
        OFFSET 1.629955 -40.308112 10.359962
        CHANNELS 3 Zrotation Xrotation Yrotation
        JOINT FootRight
        {
          OFFSET -4.578136 -4.764965 -9.458935
          CHANNELS 3 Zrotation Xrotation Yrotation
          End Site
          {
            OFFSET 0 0 0
          }
        }
      }
    }
  }
}
MOTION
Frames: 9
Frame Time: 0.033333
31.053481 74.866816 370.792992 0.000000 0.000000 14.429741 -0.000000 0.000000 -14.429741 -0.000000 0.000000 0.000000 -0.000000 0.000000 0.000000 0.000000 0.000000 0.000000 -0.000000 0.000000 0.000000 -0.000000 0.000000 0.000000 -0.000000 0.000000 0.000000 -0.000000 0.000000 0.000000 0.000000 0.000000 0.000000 0.000000 0.000000 0.000000 -0.000000 0.000000 0.000000 -0.000000 0.000000 0.000000 -0.000000 0.000000 0.000000 -0.000000 0.000000 0.000000 0.000000 0.000000 0.000000 0.000000 0.000000 0.000000 -0.000000 0.000000 -14.429741 -0.000000 0.000000 0.000000 -0.000000 0.000000 0.000000 0.000000 0.000000 0.000000 -0.000000 0.000000 -14.429741 -0.000000 0.000000 0.000000 -0.000000 0.000000 0.000000 0.000000 0.000000 0.000000
31.022371 74.895493 370.741980 -0.027371 -0.005477 14.846789 0.027861 -0.001719 -14.846790 -0.000000 0.000000 0.000000 -0.000000 0.000000 0.000000 0.000000 0.000000 0.000000 -0.000000 0.000000 0.000000 -0.000000 0.000000 0.000000 -0.000000 0.000000 0.000000 -1.799149 4.020383 0.912408 0.000000 0.000000 0.000000 0.000000 0.000000 0.000000 -0.000000 0.000000 0.000000 -0.000000 0.000000 0.000000 -1.195932 1.413252 0.022976 4.274462 -2.572213 -0.509811 0.000000 0.000000 0.000000 0.000000 0.000000 0.000000 0.027861 -0.001719 -14.846790 -0.000000 0.000000 0.000000 1.339558 -4.998878 -1.110060 0.000000 0.000000 0.000000 0.027861 -0.001719 -14.846790 -0.000000 0.000000 0.000000 0.491928 3.883341 -4.442692 0.000000 0.000000 0.000000
30.988765 74.920816 370.681949 -0.057614 -0.010744 15.196165 0.058415 -0.004734 -15.196168 -0.000000 0.000000 0.000000 -0.000000 0.000000 0.000000 0.000000 0.000000 0.000000 -0.000000 0.000000 0.000000 -0.000000 0.000000 0.000000 -0.710157 0.587968 0.241231 -2.717216 6.394367 1.467077 0.000000 0.000000 0.000000 0.000000 0.000000 0.000000 -0.000000 0.000000 0.000000 -0.000000 0.000000 0.000000 -2.308104 2.589642 0.090149 7.771091 -4.644371 -0.749139 0.000000 0.000000 0.000000 0.000000 0.000000 0.000000 0.058415 -0.004734 -15.196168 -0.000000 0.000000 0.000000 2.511515 -9.850589 -1.900288 0.000000 0.000000 0.000000 0.058415 -0.004734 -15.196168 -0.000000 0.000000 0.000000 1.006552 6.444589 -7.469799 0.000000 0.000000 0.000000
30.952663 74.942787 370.612899 -0.090725 -0.015799 15.475335 0.091651 -0.008981 -15.475340 -0.000000 0.000000 0.000000 -0.000000 0.000000 0.000000 0.000000 0.000000 0.000000 -0.000000 0.000000 0.000000 -0.000000 0.000000 0.000000 -0.843323 1.056205 0.299372 -4.048323 7.840308 2.041906 0.000000 0.000000 0.000000 0.000000 0.000000 0.000000 -0.000000 0.000000 0.000000 -0.000000 0.000000 0.000000 -3.337683 3.528371 0.192190 10.435558 -6.180100 -0.827316 0.000000 0.000000 0.000000 0.000000 0.000000 0.000000 0.091651 -0.008981 -15.475340 -0.000000 0.000000 0.000000 3.493444 -14.284940 -2.319522 0.000000 0.000000 0.000000 0.091651 -0.008981 -15.475340 -0.000000 0.000000 0.000000 1.402216 7.950108 -9.331060 0.000000 0.000000 0.000000
30.914065 74.961403 370.534829 -0.126701 -0.020642 15.682215 0.127564 -0.014374 -15.682222 -0.000000 0.000000 0.000000 -0.000000 0.000000 0.000000 0.000000 0.000000 0.000000 -0.000000 0.000000 0.000000 0.234945 0.982839 -0.203468 -1.053206 0.663200 0.496110 -5.352052 8.150821 2.442294 0.000000 0.000000 0.000000 0.000000 0.000000 0.000000 -0.000000 0.000000 0.000000 -0.000000 0.000000 0.000000 -4.285634 4.229455 0.320885 12.228252 -7.164646 -0.831930 0.000000 0.000000 0.000000 0.000000 0.000000 0.000000 0.127564 -0.014374 -15.682222 -0.000000 0.000000 0.000000 4.271082 -18.054681 -2.336039 0.000000 0.000000 0.000000 0.127564 -0.014374 -15.682222 -0.000000 0.000000 0.000000 1.618531 8.563721 -10.173249 0.000000 0.000000 0.000000
30.872971 74.976667 370.447739 -0.165538 -0.025270 15.815192 0.166159 -0.020801 -15.815199 -0.000000 0.000000 0.000000 -0.000000 0.000000 0.000000 0.000000 0.000000 0.000000 -0.000000 0.000000 0.000000 0.235622 1.349756 -0.264290 -0.858613 1.021045 0.513883 -6.632220 7.344742 2.631121 0.000000 0.000000 0.000000 0.000000 0.000000 0.000000 -0.000000 0.000000 0.000000 -0.000000 0.000000 0.000000 -5.152657 4.693019 0.469133 13.123506 -7.593845 -0.821707 0.000000 0.000000 0.000000 0.000000 0.000000 0.000000 0.166159 -0.020801 -15.815199 -0.000000 0.000000 0.000000 4.831555 -20.962778 -1.938433 0.000000 0.000000 0.000000 0.166159 -0.020801 -15.815199 -0.000000 0.000000 0.000000 1.633940 8.345247 -10.048418 0.000000 0.000000 0.000000
30.827937 74.979411 370.358997 -0.226212 -0.024518 15.874648 0.224291 -0.038294 -15.874622 -0.000000 0.000000 0.000000 -0.000000 0.000000 0.000000 0.000000 0.000000 0.000000 -0.000000 0.000000 0.000000 0.085388 1.821357 -0.313897 -0.701145 1.370001 0.584500 -7.257500 4.421380 2.219639 0.000000 0.000000 0.000000 0.000000 0.000000 0.000000 -0.000000 0.000000 0.000000 -0.417095 0.844902 0.098558 -5.292114 3.758333 0.439372 11.228334 -6.772728 -0.718246 0.000000 0.000000 0.000000 0.000000 0.000000 0.000000 0.224291 -0.038294 -15.874622 -0.000000 0.000000 0.000000 4.657812 -20.527360 -1.378840 0.000000 0.000000 0.000000 0.224291 -0.038294 -15.874622 -0.000000 0.000000 0.000000 0.501654 3.457307 -4.103315 0.000000 0.000000 0.000000
30.788032 74.979712 370.251838 -0.274120 -0.030639 15.812546 0.272096 -0.045216 -15.812512 -0.000000 0.000000 0.000000 -0.000000 0.000000 0.000000 0.000000 0.000000 0.000000 0.102213 1.043877 -0.157735 -0.050246 1.373099 -0.248742 0.585177 2.323465 0.330152 -9.120267 1.643082 2.157978 0.000000 0.000000 0.000000 0.000000 0.000000 0.000000 -0.000000 0.000000 0.000000 -0.732969 1.041543 0.169704 -5.545976 3.655991 0.472491 9.675328 -5.399746 -0.697210 0.000000 0.000000 0.000000 0.000000 0.000000 0.000000 0.272096 -0.045216 -15.812512 -0.000000 0.000000 0.000000 4.759775 -22.386994 1.164011 0.000000 0.000000 0.000000 0.272096 -0.045216 -15.812512 -0.000000 0.000000 0.000000 0.556587 3.102423 -3.908035 0.000000 0.000000 0.000000
30.741272 74.990034 370.129737 -0.318771 -0.043361 15.668110 0.318637 -0.044339 -15.668107 -0.000000 0.000000 0.000000 -0.000000 0.000000 0.000000 0.000000 0.000000 0.000000 0.221104 1.249396 -0.176749 -0.140554 1.762437 -0.334900 1.516664 1.856939 0.153429 -11.095867 -1.936029 1.804034 0.000000 0.000000 0.000000 0.000000 0.000000 0.000000 0.654540 -0.671512 -0.243103 -1.490800 1.727180 0.451266 -6.069869 3.197205 0.632831 8.980833 -6.810602 -0.422094 0.000000 0.000000 0.000000 0.000000 0.000000 0.000000 0.318637 -0.044339 -15.668107 -0.000000 0.000000 0.000000 4.754489 -22.542140 1.523436 0.000000 0.000000 0.000000 0.932062 0.814514 -15.446626 -0.362587 -0.991181 -0.228740 0.090006 -1.454222 1.252193 0.000000 0.000000 0.000000
